<svg xmlns="http://www.w3.org/2000/svg" viewBox="0 0 24 24" width="24" height="24" color="currentColor" fill="none">
    <defs />
    <path fill="currentColor" d="M12,10.25 C12.441,10.25 12.934,10.032 13.457,9.483 C13.743,9.183 14.217,9.171 14.517,9.457 C14.817,9.742 14.829,10.217 14.543,10.517 C14.026,11.06 13.424,11.472 12.75,11.651 L12.75,15.25 L15.846,15.25 C15.976,15.25 16.104,15.25 16.213,15.256 C16.327,15.263 16.48,15.279 16.64,15.342 C17.138,15.535 17.473,16.004 17.499,16.535 C17.507,16.706 17.474,16.857 17.444,16.967 C17.416,17.072 17.375,17.194 17.334,17.318 L17.329,17.335 L17.303,17.413 C17.159,17.847 17.046,18.187 16.865,18.473 C16.574,18.934 16.154,19.294 15.663,19.513 L15.607,19.792 L15.585,19.902 C15.466,20.501 15.373,20.968 15.154,21.355 C14.817,21.949 14.271,22.397 13.623,22.61 C13.2,22.75 12.724,22.749 12.112,22.749 L12.112,22.749 L12.001,22.749 L11.89,22.749 L11.89,22.749 C11.278,22.749 10.802,22.75 10.38,22.61 C9.731,22.397 9.185,21.949 8.849,21.355 C8.629,20.969 8.536,20.501 8.417,19.902 L8.395,19.792 L8.339,19.514 C7.847,19.295 7.427,18.934 7.135,18.473 C6.954,18.187 6.841,17.847 6.697,17.413 L6.671,17.335 L6.666,17.318 C6.624,17.194 6.584,17.072 6.556,16.967 C6.526,16.857 6.493,16.706 6.501,16.535 C6.527,16.004 6.862,15.535 7.36,15.342 C7.52,15.279 7.673,15.263 7.787,15.256 C7.896,15.25 8.024,15.25 8.154,15.25 L11.25,15.25 L11.25,11.651 C10.576,11.472 9.974,11.06 9.457,10.517 C9.171,10.217 9.183,9.742 9.483,9.457 C9.783,9.171 10.257,9.183 10.543,9.483 C11.066,10.032 11.559,10.25 12,10.25 Z M12,2.75 C7.989,2.75 4.75,5.967 4.75,9.919 C4.75,11.27 5.127,12.532 5.784,13.61 C5.999,13.964 5.887,14.425 5.533,14.641 C5.179,14.856 4.718,14.744 4.502,14.39 C3.707,13.084 3.25,11.554 3.25,9.919 C3.25,5.124 7.175,1.25 12,1.25 C16.825,1.25 20.75,5.124 20.75,9.919 C20.75,11.554 20.293,13.084 19.498,14.39 C19.282,14.744 18.821,14.856 18.467,14.641 C18.113,14.425 18.001,13.964 18.216,13.61 C18.873,12.532 19.25,11.27 19.25,9.919 C19.25,5.967 16.011,2.75 12,2.75 Z M8.095,16.862 C8.277,17.412 8.332,17.56 8.402,17.671 C8.574,17.942 8.842,18.136 9.151,18.213 C9.277,18.245 9.434,18.25 10.012,18.25 L13.988,18.25 C14.566,18.25 14.723,18.245 14.849,18.213 C15.158,18.136 15.426,17.942 15.598,17.671 C15.668,17.56 15.723,17.412 15.905,16.862 L15.942,16.75 L15.828,16.75 L8.172,16.75 L8.058,16.75 Z M10.153,20.615 C10.306,20.885 10.554,21.089 10.849,21.186 C11.012,21.239 11.224,21.249 12.001,21.249 C12.778,21.249 12.99,21.239 13.153,21.186 C13.448,21.089 13.696,20.885 13.849,20.615 C13.923,20.484 13.971,20.309 14.085,19.75 L9.917,19.75 C10.031,20.309 10.079,20.484 10.153,20.615 Z" />
</svg>