<svg xmlns="http://www.w3.org/2000/svg" viewBox="0 0 24 24" width="24" height="24" color="currentColor" fill="none">
    <defs />
    <path fill="currentColor" d="M12.057,1.75 L12.057,1.75 C14.248,1.75 15.969,1.75 17.312,1.931 C18.689,2.116 19.781,2.503 20.639,3.361 C21.497,4.219 21.884,5.311 22.069,6.688 C22.25,8.031 22.25,9.752 22.25,11.943 L22.25,12.057 C22.25,14.248 22.25,15.969 22.069,17.312 C21.884,18.689 21.497,19.781 20.639,20.639 C19.781,21.497 18.689,21.884 17.312,22.069 C15.969,22.25 14.248,22.25 12.057,22.25 L11.943,22.25 C9.752,22.25 8.031,22.25 6.688,22.069 C5.311,21.884 4.219,21.497 3.361,20.639 C2.503,19.781 2.116,18.689 1.931,17.312 C1.75,15.969 1.75,14.248 1.75,12.057 L1.75,11.943 C1.75,9.752 1.75,8.031 1.931,6.688 C2.116,5.311 2.503,4.219 3.361,3.361 C4.219,2.503 5.311,2.116 6.688,1.931 C8.031,1.75 9.752,1.75 11.943,1.75 L12.057,1.75 Z M3.25,12 C3.25,14.26 3.252,15.88 3.417,17.112 C3.58,18.322 3.889,19.045 4.422,19.578 C4.955,20.111 5.678,20.42 6.888,20.583 C8.12,20.748 9.74,20.75 12,20.75 C14.26,20.75 15.88,20.748 17.112,20.583 C18.322,20.42 19.045,20.111 19.578,19.578 C20.111,19.045 20.42,18.322 20.583,17.112 C20.748,15.88 20.75,14.26 20.75,12 C20.75,11.167 20.75,10.422 20.741,9.75 L3.259,9.75 C3.25,10.422 3.25,11.167 3.25,12 Z M6.888,3.417 C5.678,3.58 4.955,3.889 4.422,4.422 C3.889,4.955 3.58,5.678 3.417,6.888 C3.362,7.296 3.325,7.747 3.301,8.25 L20.699,8.25 C20.675,7.747 20.638,7.296 20.583,6.888 C20.42,5.678 20.111,4.955 19.578,4.422 C19.045,3.889 18.322,3.58 17.112,3.417 C15.88,3.252 14.26,3.25 12,3.25 C9.74,3.25 8.12,3.252 6.888,3.417 Z M13.712,12.237 L11.712,18.237 C11.581,18.63 11.156,18.843 10.763,18.712 C10.37,18.581 10.158,18.156 10.289,17.763 L12.289,11.763 C12.42,11.37 12.844,11.158 13.237,11.289 C13.63,11.42 13.843,11.844 13.712,12.237 Z M15.51,13.568 C15.197,13.298 15.161,12.824 15.432,12.51 C15.702,12.197 16.176,12.161 16.49,12.432 L17.716,13.489 L17.748,13.516 L17.748,13.516 C17.978,13.715 18.205,13.91 18.368,14.095 C18.549,14.299 18.75,14.595 18.75,15 C18.75,15.405 18.549,15.701 18.368,15.905 C18.205,16.09 17.978,16.285 17.748,16.484 L17.716,16.511 L16.49,17.568 C16.176,17.838 15.702,17.803 15.432,17.49 C15.161,17.176 15.197,16.702 15.51,16.432 L16.737,15.375 C16.937,15.203 17.069,15.088 17.159,15 C17.069,14.912 16.937,14.797 16.737,14.625 Z M8.568,12.51 C8.839,12.824 8.803,13.298 8.49,13.568 L7.263,14.625 C7.063,14.797 6.932,14.912 6.841,15 C6.932,15.088 7.063,15.203 7.263,15.375 L8.49,16.432 C8.803,16.702 8.839,17.176 8.568,17.49 C8.298,17.803 7.824,17.838 7.51,17.568 L6.284,16.511 L6.252,16.484 C6.022,16.285 5.795,16.09 5.632,15.905 C5.451,15.701 5.25,15.405 5.25,15 C5.25,14.595 5.451,14.299 5.632,14.095 C5.795,13.91 6.022,13.715 6.252,13.516 L6.284,13.489 L7.51,12.432 C7.824,12.161 8.298,12.197 8.568,12.51 Z M10,6 C10,5.448 10.448,5 11,5 L11.009,5 C11.561,5 12.009,5.448 12.009,6 C12.009,6.552 11.561,7 11.009,7 L11,7 C10.448,7 10,6.552 10,6 Z M7,5 L7.009,5 C7.561,5 8.009,5.448 8.009,6 C8.009,6.552 7.561,7 7.009,7 L7,7 C6.448,7 6,6.552 6,6 C6,5.448 6.448,5 7,5 Z" />
</svg>