<svg xmlns="http://www.w3.org/2000/svg" viewBox="0 0 24 24" width="24" height="24" color="currentColor" fill="none">
    <defs />
    <path fill="currentColor" d="M9.451,1.25 L9.549,1.25 C11.151,1.25 12.421,1.25 13.425,1.369 C14.456,1.491 15.304,1.746 16.013,2.328 C16.254,2.526 16.474,2.746 16.672,2.987 C17.223,3.658 17.482,4.456 17.611,5.415 C17.716,6.194 17.742,7.132 17.748,8.261 C18.37,8.274 18.916,8.303 19.392,8.367 C20.292,8.488 21.05,8.746 21.652,9.348 C22.254,9.95 22.513,10.708 22.633,11.608 C22.75,12.475 22.75,13.578 22.75,14.945 L22.75,16.055 C22.75,17.423 22.75,18.525 22.633,19.392 C22.513,20.292 22.254,21.05 21.652,21.652 C21.05,22.254 20.292,22.513 19.392,22.633 C18.525,22.75 17.423,22.75 16.055,22.75 L14.945,22.75 C13.578,22.75 12.475,22.75 11.608,22.633 C10.708,22.513 9.95,22.254 9.348,21.652 C8.746,21.05 8.488,20.292 8.367,19.392 C8.303,18.916 8.274,18.37 8.261,17.748 C7.132,17.742 6.194,17.716 5.415,17.611 C4.456,17.482 3.658,17.223 2.987,16.672 C2.746,16.474 2.526,16.254 2.328,16.013 C1.746,15.304 1.491,14.456 1.369,13.425 C1.25,12.421 1.25,11.151 1.25,9.549 L1.25,9.451 C1.25,7.849 1.25,6.579 1.369,5.575 C1.491,4.544 1.746,3.696 2.328,2.987 C2.526,2.746 2.746,2.526 2.987,2.328 C3.696,1.746 4.544,1.491 5.575,1.369 C6.579,1.25 7.849,1.25 9.451,1.25 L9.451,1.25 Z M10.409,10.409 C10.132,10.686 9.952,11.074 9.853,11.808 C9.752,12.564 9.75,13.565 9.75,15 L9.75,16 C9.75,17.435 9.752,18.437 9.853,19.192 C9.952,19.926 10.132,20.314 10.409,20.591 C10.686,20.868 11.074,21.048 11.808,21.147 C12.564,21.248 13.565,21.25 15,21.25 L16,21.25 C17.435,21.25 18.437,21.248 19.192,21.147 C19.926,21.048 20.314,20.868 20.591,20.591 C20.868,20.314 21.048,19.926 21.147,19.192 C21.248,18.437 21.25,17.435 21.25,16 L21.25,15 C21.25,13.565 21.248,12.564 21.147,11.808 C21.048,11.074 20.868,10.686 20.591,10.409 C20.314,10.132 19.926,9.952 19.192,9.853 C18.437,9.752 17.435,9.75 16,9.75 L15,9.75 C13.565,9.75 12.564,9.752 11.808,9.853 C11.074,9.952 10.686,10.132 10.409,10.409 Z M16.248,8.25 C16.241,7.14 16.216,6.295 16.125,5.616 C16.016,4.808 15.822,4.315 15.512,3.938 C15.377,3.774 15.226,3.623 15.062,3.488 C14.664,3.162 14.138,2.963 13.249,2.858 C12.343,2.751 11.162,2.75 9.5,2.75 C7.838,2.75 6.657,2.751 5.751,2.858 C4.862,2.963 4.336,3.162 3.938,3.488 C3.774,3.623 3.623,3.774 3.488,3.938 C3.162,4.336 2.963,4.862 2.858,5.751 C2.751,6.657 2.75,7.838 2.75,9.5 C2.75,11.162 2.751,12.343 2.858,13.249 C2.963,14.138 3.162,14.664 3.488,15.062 C3.623,15.226 3.774,15.377 3.938,15.512 C4.315,15.822 4.808,16.016 5.616,16.125 C6.295,16.216 7.14,16.241 8.25,16.248 L8.25,16.055 L8.25,14.945 C8.25,13.577 8.25,12.475 8.367,11.608 C8.488,10.708 8.746,9.95 9.348,9.348 C9.95,8.746 10.708,8.488 11.608,8.367 C12.475,8.25 13.577,8.25 14.945,8.25 L16.055,8.25 C16.12,8.25 16.184,8.25 16.248,8.25 Z" />
</svg>