<svg xmlns="http://www.w3.org/2000/svg" viewBox="0 0 24 24" width="24" height="24" color="currentColor" fill="none">
    <defs />
    <path fill="currentColor" d="M4.97,4.47 C5.263,4.177 5.737,4.177 6.03,4.47 L12.5,10.939 L18.97,4.47 C19.263,4.177 19.737,4.177 20.03,4.47 C20.323,4.763 20.323,5.237 20.03,5.53 L13.561,12 L20.03,18.47 C20.323,18.763 20.323,19.237 20.03,19.53 C19.737,19.823 19.263,19.823 18.97,19.53 L12.5,13.061 L6.03,19.53 C5.737,19.823 5.263,19.823 4.97,19.53 C4.677,19.237 4.677,18.763 4.97,18.47 L11.439,12 L4.97,5.53 C4.677,5.237 4.677,4.763 4.97,4.47 Z" />
</svg>