<svg xmlns="http://www.w3.org/2000/svg" viewBox="0 0 24 24" width="24" height="24" color="currentColor" fill="none">
    <defs />
    <path fill="currentColor" d="M13.064,2.758 L13.574,2.758 C16.064,2.758 17.314,2.758 18.444,3.408 C18.554,3.468 18.664,3.538 18.764,3.608 C19.829,4.334 20.379,5.517 21.37,7.647 L21.384,7.678 C22.554,10.188 23.134,11.448 22.484,12.628 C22.404,12.758 22.324,12.888 22.224,13.008 C21.394,14.048 19.984,14.048 17.174,14.048 L16.774,14.048 C16.334,14.048 15.884,14.048 15.784,14.088 C15.734,14.118 15.694,14.168 15.684,14.198 C15.676,14.29 15.766,14.586 15.866,14.915 L15.866,14.915 C15.885,14.979 15.905,15.043 15.924,15.108 L16.194,15.968 C16.212,16.028 16.227,16.081 16.242,16.129 C16.284,16.272 16.312,16.368 16.334,16.458 C16.624,17.638 16.434,18.868 15.804,19.908 C15.754,20 15.689,20.093 15.575,20.257 C15.553,20.288 15.53,20.321 15.504,20.358 C15.404,20.508 15.344,20.588 15.294,20.648 C14.644,21.378 13.524,21.448 12.794,20.808 C12.758,20.779 12.716,20.734 12.638,20.649 C12.609,20.618 12.575,20.581 12.534,20.538 L8.444,16.008 L8.407,15.967 C7.382,14.834 6.86,14.258 6.554,13.468 C6.533,13.413 6.513,13.358 6.494,13.302 C5.831,13.896 4.954,14.258 3.994,14.258 C2.474,14.258 1.244,13.028 1.244,11.508 L1.244,5.508 C1.244,3.988 2.474,2.758 3.994,2.758 C5.22,2.758 6.31,3.348 6.994,4.259 C7.101,4.106 7.224,3.963 7.364,3.828 C8.474,2.758 10.004,2.758 13.064,2.758 Z M13.784,19.688 C13.834,19.738 13.894,19.758 13.964,19.758 L13.974,19.778 C14.044,19.778 14.124,19.748 14.174,19.688 C14.198,19.664 14.221,19.629 14.259,19.572 C14.269,19.555 14.281,19.538 14.294,19.518 C14.34,19.449 14.378,19.393 14.411,19.346 C14.465,19.269 14.503,19.213 14.534,19.158 C14.964,18.458 15.084,17.628 14.894,16.838 C14.883,16.78 14.864,16.722 14.84,16.644 C14.821,16.586 14.8,16.517 14.774,16.428 L14.504,15.558 L14.497,15.535 L14.497,15.535 C14.252,14.729 14.116,14.283 14.264,13.788 C14.384,13.398 14.654,13.048 15.004,12.828 C15.434,12.558 15.914,12.558 16.794,12.558 L17.194,12.558 C19.374,12.558 20.694,12.558 21.074,12.078 C21.114,12.028 21.154,11.968 21.184,11.908 C21.459,11.397 20.943,10.279 20.082,8.413 L20.082,8.412 C20.066,8.378 20.05,8.343 20.034,8.308 C20.013,8.261 19.991,8.216 19.97,8.17 C19.093,6.292 18.647,5.336 17.924,4.848 C17.854,4.798 17.774,4.748 17.704,4.708 C16.924,4.258 15.804,4.258 13.584,4.258 L13.074,4.258 C10.414,4.258 9.084,4.258 8.414,4.908 C7.784,5.528 7.754,6.658 7.754,9.388 L7.754,10.359 C7.754,11.718 7.754,12.408 7.964,12.938 C8.174,13.478 8.634,13.988 9.564,15.018 L13.684,19.578 C13.715,19.608 13.738,19.635 13.756,19.656 C13.767,19.669 13.776,19.68 13.784,19.688 Z M6.244,9.378 L6.244,6.508 C6.244,5.268 5.234,4.258 3.994,4.258 C3.304,4.258 2.744,4.818 2.744,5.508 L2.744,11.508 C2.744,12.198 3.304,12.758 3.994,12.758 C5.234,12.758 6.244,11.748 6.244,10.508 L6.244,9.378 Z" />
</svg>