<svg xmlns="http://www.w3.org/2000/svg" viewBox="0 0 24 24" width="24" height="24" color="currentColor" fill="none">
    <defs />
    <path fill="currentColor" d="M10.742,12 C10.742,11.31 11.302,10.75 11.992,10.75 L12.001,10.75 C12.691,10.75 13.251,11.31 13.251,12 C13.251,12.69 12.691,13.25 12.001,13.25 L11.992,13.25 C11.302,13.25 10.742,12.69 10.742,12 Z M10.734,18 C10.734,17.31 11.294,16.75 11.984,16.75 L11.993,16.75 C12.684,16.75 13.243,17.31 13.243,18 C13.243,18.69 12.684,19.25 11.993,19.25 L11.984,19.25 C11.294,19.25 10.734,18.69 10.734,18 Z M12,4.75 L12.009,4.75 C12.699,4.75 13.259,5.31 13.259,6 C13.259,6.69 12.699,7.25 12.009,7.25 L12,7.25 C11.31,7.25 10.75,6.69 10.75,6 C10.75,5.31 11.31,4.75 12,4.75 Z" />
</svg>