<svg xmlns="http://www.w3.org/2000/svg" viewBox="0 0 24 24" width="24" height="24" color="currentColor" fill="none">
    <defs />
    <path fill="currentColor" d="M19.918,1.463 C20.183,1.577 20.405,1.742 20.62,1.931 C20.826,2.112 21.061,2.347 21.34,2.626 L21.374,2.66 L21.374,2.66 C21.653,2.939 21.888,3.174 22.069,3.38 C22.258,3.595 22.423,3.817 22.537,4.082 C22.821,4.74 22.821,5.487 22.537,6.145 C22.423,6.41 22.258,6.632 22.069,6.847 C21.888,7.053 21.653,7.288 21.374,7.567 L16.336,12.606 L16.235,12.707 C15.095,13.847 14.389,14.553 13.495,14.976 C12.602,15.399 11.609,15.497 10.003,15.655 L9.862,15.669 L9.074,15.746 C8.85,15.768 8.628,15.689 8.47,15.53 C8.311,15.372 8.232,15.15 8.254,14.926 L8.331,14.138 L8.345,13.997 C8.503,12.391 8.601,11.398 9.024,10.505 C9.447,9.611 10.153,8.905 11.293,7.765 L11.394,7.664 L16.433,2.626 C16.712,2.347 16.947,2.112 17.153,1.931 C17.368,1.742 17.59,1.577 17.855,1.463 C18.513,1.179 19.26,1.179 19.918,1.463 Z M18.449,2.84 C18.389,2.867 18.302,2.919 18.142,3.059 C17.977,3.203 17.777,3.403 17.476,3.703 L12.455,8.725 C11.181,9.999 10.678,10.516 10.38,11.146 C10.089,11.762 10.005,12.46 9.836,14.164 C11.54,13.995 12.238,13.911 12.854,13.62 C13.484,13.322 14.001,12.819 15.275,11.545 L20.297,6.524 C20.597,6.223 20.797,6.023 20.941,5.858 C21.081,5.698 21.133,5.611 21.16,5.551 C21.28,5.272 21.28,4.955 21.16,4.676 C21.133,4.616 21.081,4.529 20.941,4.369 C20.797,4.204 20.597,4.004 20.297,3.703 C19.996,3.403 19.796,3.203 19.631,3.059 C19.471,2.919 19.384,2.867 19.323,2.84 C19.045,2.72 18.728,2.72 18.449,2.84 Z M3.75,14.25 L6,14.25 C6.414,14.25 6.75,14.586 6.75,15 C6.75,15.414 6.414,15.75 6,15.75 L3.75,15.75 C3.198,15.75 2.75,16.198 2.75,16.75 C2.75,17.302 3.198,17.75 3.75,17.75 L13.25,17.75 C14.631,17.75 15.75,18.869 15.75,20.25 C15.75,21.631 14.631,22.75 13.25,22.75 L11,22.75 C10.586,22.75 10.25,22.414 10.25,22 C10.25,21.586 10.586,21.25 11,21.25 L13.25,21.25 C13.802,21.25 14.25,20.802 14.25,20.25 C14.25,19.698 13.802,19.25 13.25,19.25 L3.75,19.25 C2.369,19.25 1.25,18.131 1.25,16.75 C1.25,15.369 2.369,14.25 3.75,14.25 Z" />
</svg>