<svg xmlns="http://www.w3.org/2000/svg" viewBox="0 0 24 24" width="24" height="24" color="currentColor" fill="none">
    <defs />
    <path fill="currentColor" d="M12.794,3.187 C13.524,2.547 14.644,2.617 15.294,3.347 C15.344,3.407 15.404,3.487 15.504,3.637 C15.53,3.674 15.553,3.708 15.575,3.739 C15.689,3.902 15.754,3.995 15.804,4.087 C16.434,5.127 16.624,6.357 16.334,7.537 C16.312,7.627 16.284,7.723 16.242,7.866 C16.227,7.914 16.212,7.967 16.194,8.027 L15.924,8.887 C15.905,8.952 15.885,9.017 15.866,9.08 L15.866,9.081 C15.766,9.409 15.676,9.705 15.684,9.797 C15.694,9.827 15.734,9.877 15.784,9.907 C15.884,9.947 16.334,9.947 16.774,9.947 L17.776,9.948 C20.19,9.953 21.456,10.024 22.224,10.987 C22.324,11.107 22.404,11.237 22.484,11.367 C23.134,12.547 22.554,13.807 21.384,16.317 L21.37,16.348 C20.379,18.479 19.829,19.661 18.764,20.387 C18.664,20.457 18.554,20.527 18.444,20.587 C17.314,21.237 16.064,21.237 13.574,21.237 L12.742,21.237 C9.895,21.236 8.434,21.199 7.364,20.167 C7.224,20.032 7.101,19.889 6.994,19.737 C6.31,20.648 5.22,21.237 3.994,21.237 C2.474,21.237 1.244,20.007 1.244,18.487 L1.244,12.487 C1.244,10.967 2.474,9.737 3.994,9.737 C4.954,9.737 5.831,10.099 6.494,10.693 C6.513,10.638 6.533,10.583 6.554,10.527 C6.86,9.737 7.382,9.161 8.407,8.028 L8.444,7.987 L12.534,3.457 C12.575,3.414 12.609,3.377 12.638,3.346 C12.716,3.262 12.758,3.217 12.794,3.187 Z M13.974,4.217 L13.964,4.237 C13.894,4.237 13.834,4.257 13.784,4.307 C13.776,4.315 13.767,4.326 13.756,4.339 C13.738,4.36 13.715,4.387 13.684,4.417 L9.564,8.977 C8.634,10.007 8.174,10.517 7.964,11.057 C7.754,11.587 7.754,12.277 7.754,13.636 L7.754,14.607 C7.754,17.337 7.784,18.467 8.414,19.087 C9.031,19.685 10.206,19.733 12.461,19.737 L13.894,19.737 C15.91,19.736 16.961,19.716 17.704,19.287 C17.774,19.247 17.854,19.197 17.924,19.147 C18.647,18.659 19.093,17.704 19.97,15.825 C19.991,15.78 20.012,15.734 20.034,15.687 L20.082,15.583 L20.085,15.577 C20.944,13.714 21.459,12.597 21.184,12.087 C21.154,12.027 21.114,11.967 21.074,11.917 C20.729,11.481 19.606,11.441 17.767,11.438 L16.582,11.437 C15.835,11.436 15.398,11.415 15.004,11.167 C14.654,10.947 14.384,10.597 14.264,10.207 C14.116,9.712 14.252,9.266 14.496,8.462 L14.497,8.46 L14.504,8.437 L14.774,7.567 C14.8,7.478 14.821,7.409 14.84,7.351 C14.864,7.273 14.883,7.215 14.894,7.157 C15.084,6.367 14.964,5.537 14.534,4.837 C14.503,4.782 14.465,4.726 14.411,4.649 C14.378,4.602 14.34,4.546 14.294,4.477 C14.281,4.458 14.269,4.44 14.259,4.424 C14.221,4.366 14.198,4.331 14.174,4.307 C14.124,4.247 14.044,4.217 13.974,4.217 Z M3.994,11.237 C3.304,11.237 2.744,11.797 2.744,12.487 L2.744,18.487 C2.744,19.177 3.304,19.737 3.994,19.737 C5.234,19.737 6.244,18.727 6.244,17.487 L6.244,13.487 C6.244,12.247 5.234,11.237 3.994,11.237 Z" />
</svg>