<?xml version="1.0" standalone="no"?>
<!DOCTYPE svg PUBLIC "-//W3C//DTD SVG 20010904//EN"
 "http://www.w3.org/TR/2001/REC-SVG-20010904/DTD/svg10.dtd">
<svg version="1.0" xmlns="http://www.w3.org/2000/svg"
 width="2048.000000pt" height="2048.000000pt" viewBox="0 0 2048.000000 2048.000000"
 preserveAspectRatio="xMidYMid meet">

<g transform="translate(0.000000,2048.000000) scale(0.100000,-0.100000)"
fill="#000000" stroke="none">
<path d="M1 20348 c2 -146 3 -145 22 20 13 107 13 112 -5 112 -17 0 -18 -10
-17 -132z"/>
<path d="M5078 17931 c4 -2180 3 -2549 -9 -2552 -12 -3 -13 -514 -9 -3539 l5
-3535 8 2185 c4 1202 10 2794 14 3538 l6 1352 5172 0 5172 0 8 -5162 c4 -2907
4 -5163 -1 -5165 -8 -3 -9 -4974 -1 -4998 6 -18 17 7344 17 11401 0 3282 -2
3923 -14 3933 -9 8 -1381 12 -5182 13 l-5169 3 -3 2538 c-1 1448 -6 2537 -11
2537 -5 0 -6 -1088 -3 -2549z"/>
<path d="M10 15389 c0 -5 883 -9 2123 -8 1167 0 2118 2 2112 4 -24 8 -4235 12
-4235 4z"/>
<path d="M11520 5020 c-558 -3 -159 -5 1100 -6 1176 0 1744 3 1405 7 -632 7
-1201 7 -2505 -1z"/>
<path d="M19383 5023 c202 -2 532 -2 735 0 202 1 36 2 -368 2 -404 0 -570 -1
-367 -2z"/>
</g>
</svg>
