<svg xmlns="http://www.w3.org/2000/svg" viewBox="0 0 24 24" width="24" height="24" color="currentColor" fill="none">
    <defs />
    <path fill="currentColor" d="M2.47,21.531 C2.177,21.238 2.177,20.763 2.469,20.47 L9.176,13.756 C9.048,13.763 8.914,13.772 8.775,13.783 C8.383,13.816 7.984,13.864 7.613,13.908 C7.584,13.912 7.555,13.915 7.526,13.919 C7.153,13.964 6.773,14.009 6.513,14.012 C6.099,14.018 5.758,13.687 5.752,13.273 C5.746,12.859 6.077,12.519 6.492,12.513 C6.654,12.51 6.94,12.478 7.347,12.429 C7.377,12.426 7.407,12.422 7.437,12.419 C7.804,12.375 8.23,12.323 8.652,12.288 C9.104,12.251 9.583,12.229 10.003,12.263 C10.213,12.28 10.432,12.312 10.636,12.374 C10.833,12.434 11.071,12.537 11.266,12.732 C11.461,12.927 11.565,13.165 11.625,13.363 C11.686,13.567 11.719,13.785 11.735,13.996 C11.769,14.415 11.748,14.895 11.71,15.347 C11.675,15.768 11.624,16.195 11.58,16.561 C11.576,16.592 11.573,16.622 11.569,16.651 C11.52,17.059 11.488,17.345 11.486,17.507 C11.48,17.921 11.139,18.252 10.725,18.246 C10.311,18.24 9.98,17.9 9.986,17.486 C9.99,17.226 10.035,16.846 10.08,16.472 C10.083,16.444 10.087,16.415 10.09,16.386 C10.135,16.015 10.183,15.615 10.215,15.223 C10.227,15.08 10.237,14.942 10.243,14.81 L3.53,21.53 C3.238,21.823 2.763,21.823 2.47,21.531 Z M13.369,11.619 C13.171,11.559 12.933,11.455 12.738,11.26 C12.543,11.066 12.44,10.828 12.38,10.63 C12.318,10.426 12.286,10.207 12.269,9.997 C12.235,9.577 12.257,9.098 12.294,8.646 C12.329,8.225 12.38,7.798 12.424,7.432 C12.428,7.401 12.432,7.371 12.435,7.341 C12.484,6.934 12.516,6.648 12.519,6.486 C12.524,6.072 12.865,5.741 13.279,5.746 C13.693,5.752 14.024,6.093 14.018,6.507 C14.015,6.767 13.969,7.147 13.925,7.52 C13.921,7.549 13.918,7.578 13.914,7.607 C13.87,7.978 13.821,8.377 13.789,8.769 C13.778,8.907 13.769,9.041 13.762,9.168 L20.469,2.467 C20.762,2.175 21.237,2.175 21.53,2.468 C21.822,2.761 21.822,3.236 21.529,3.529 L14.814,10.237 C14.947,10.231 15.086,10.221 15.229,10.21 C15.621,10.177 16.021,10.129 16.392,10.084 C16.421,10.081 16.45,10.077 16.478,10.074 C16.852,10.029 17.231,9.984 17.492,9.98 C17.906,9.974 18.246,10.305 18.252,10.719 C18.258,11.134 17.927,11.474 17.513,11.48 C17.351,11.482 17.064,11.514 16.657,11.563 C16.628,11.567 16.597,11.57 16.567,11.574 C16.201,11.618 15.774,11.67 15.353,11.704 C14.901,11.742 14.421,11.763 14.001,11.73 C13.791,11.713 13.573,11.68 13.369,11.619 Z" />
</svg>