<svg xmlns="http://www.w3.org/2000/svg" viewBox="0 0 24 24" width="24" height="24" color="currentColor" fill="none">
    <defs />
    <path fill="currentColor" d="M11.032,14.03 L4.821,20.243 C4.95,20.237 5.086,20.227 5.227,20.216 C5.619,20.183 6.019,20.135 6.39,20.091 L6.39,20.091 L6.476,20.08 C6.849,20.035 7.229,19.99 7.489,19.986 C7.904,19.981 8.244,20.312 8.25,20.726 C8.256,21.14 7.925,21.48 7.511,21.486 C7.349,21.489 7.062,21.521 6.655,21.569 L6.565,21.58 L6.565,21.58 C6.198,21.625 5.772,21.676 5.351,21.711 C4.899,21.748 4.419,21.769 3.999,21.736 C3.789,21.719 3.57,21.687 3.366,21.625 C3.169,21.565 2.931,21.462 2.736,21.267 C2.541,21.072 2.437,20.834 2.378,20.636 C2.316,20.432 2.284,20.214 2.267,20.003 C2.233,19.583 2.255,19.104 2.292,18.652 C2.327,18.231 2.378,17.804 2.422,17.438 L2.433,17.347 C2.482,16.94 2.514,16.654 2.516,16.492 C2.522,16.078 2.863,15.747 3.277,15.753 C3.691,15.759 4.022,16.099 4.016,16.513 C4.012,16.773 3.967,17.153 3.922,17.526 L3.912,17.613 C3.867,17.984 3.819,18.384 3.787,18.775 C3.775,18.917 3.766,19.053 3.76,19.183 L9.971,12.97 C10.264,12.677 10.739,12.677 11.032,12.97 C11.325,13.262 11.325,13.737 11.032,14.03 Z M16.51,4.016 C16.096,4.022 15.756,3.691 15.75,3.277 C15.744,2.863 16.075,2.522 16.489,2.516 C16.651,2.514 16.938,2.482 17.345,2.433 L17.435,2.422 C17.801,2.378 18.228,2.327 18.649,2.292 C19.101,2.255 19.581,2.233 20,2.267 C20.211,2.284 20.43,2.316 20.633,2.378 C20.831,2.437 21.069,2.541 21.264,2.736 C21.459,2.931 21.562,3.169 21.622,3.366 C21.684,3.57 21.716,3.789 21.733,3.999 C21.767,4.419 21.745,4.899 21.708,5.351 C21.673,5.772 21.622,6.198 21.577,6.565 L21.567,6.655 C21.518,7.062 21.486,7.349 21.483,7.511 C21.478,7.925 21.137,8.256 20.723,8.25 C20.309,8.244 19.978,7.904 19.984,7.489 C19.987,7.229 20.032,6.849 20.077,6.476 L20.088,6.39 C20.132,6.019 20.181,5.619 20.213,5.227 C20.225,5.085 20.234,4.948 20.24,4.817 L14.032,11.026 C13.74,11.319 13.265,11.319 12.972,11.026 C12.679,10.734 12.679,10.259 12.972,9.966 L19.177,3.76 C19.048,3.766 18.912,3.775 18.773,3.787 C18.381,3.819 17.981,3.867 17.61,3.912 L17.524,3.922 C17.15,3.967 16.771,4.012 16.51,4.016 Z" />
</svg>