<svg xmlns="http://www.w3.org/2000/svg" viewBox="0 0 24 24" width="24" height="24" color="currentColor" fill="none">
    <path d="M12 1.75C17.6609 1.75 22.25 6.339 22.25 12C22.25 17.661 17.6609 22.25 12 22.25C10.2448 22.25 8.59046 21.808 7.14453 21.029C6.38511 20.62 5.78228 20.611 5.23633 20.714C4.94458 20.769 4.66731 20.856 4.3584 20.953C4.06749 21.045 3.72337 21.155 3.37793 21.207C2.95556 21.271 2.5542 21.115 2.2793 20.84C1.8481 20.408 1.80203 19.788 2.00293 19.314L2.07617 19.132C2.43613 18.171 2.70956 16.554 2.27148 15.236C1.9329 14.218 1.75 13.13 1.75 12C1.75 6.339 6.33908 1.75 12 1.75ZM12 3.25C7.16751 3.25 3.25 7.168 3.25 12C3.25 12.967 3.40677 13.896 3.69531 14.764C4.27428 16.505 3.91799 18.479 3.48145 19.651C3.60657 19.617 3.74589 19.574 3.90723 19.523C4.20392 19.43 4.56568 19.313 4.95996 19.239C5.78659 19.084 6.74709 19.111 7.85547 19.708C9.08824 20.372 10.4991 20.75 12 20.75C16.8325 20.75 20.75 16.832 20.75 12C20.75 7.168 16.8325 3.25 12 3.25ZM12 7.75C12.4142 7.75 12.75 8.086 12.75 8.5V11.25H15.5C15.9142 11.25 16.25 11.586 16.25 12C16.25 12.414 15.9142 12.75 15.5 12.75H12.75V15.5C12.75 15.914 12.4142 16.25 12 16.25C11.5858 16.25 11.25 15.914 11.25 15.5V12.75H8.5C8.08579 12.75 7.75 12.414 7.75 12C7.75 11.586 8.08579 11.25 8.5 11.25H11.25V8.5C11.25 8.086 11.5858 7.75 12 7.75Z" fill="currentColor" />
</svg>