<svg xmlns="http://www.w3.org/2000/svg" viewBox="0 0 24 24" width="24" height="24" color="currentColor" fill="none">
    <defs />
    <path fill="currentColor" d="M17.269,2.323 C18.574,2.671 19.627,2.951 20.425,3.282 C21.254,3.626 21.913,4.066 22.336,4.794 C22.759,5.522 22.812,6.311 22.697,7.199 C22.587,8.052 22.304,9.1 21.955,10.397 L20.903,14.3 C20.553,15.597 20.271,16.644 19.938,17.438 C19.591,18.264 19.149,18.92 18.418,19.34 C17.688,19.759 16.897,19.812 16.006,19.698 C15.148,19.588 14.096,19.307 12.791,18.959 L12.791,18.959 L11.731,18.677 C10.425,18.329 9.373,18.049 8.575,17.718 C7.746,17.374 7.086,16.934 6.664,16.206 C6.241,15.478 6.188,14.689 6.303,13.801 C6.413,12.948 6.696,11.9 7.045,10.603 L8.097,6.7 C8.446,5.403 8.729,4.356 9.062,3.561 C9.409,2.736 9.851,2.08 10.582,1.66 C11.312,1.241 12.103,1.188 12.994,1.302 C13.851,1.412 14.904,1.693 16.209,2.04 Z M11.329,2.961 C10.996,3.152 10.726,3.473 10.445,4.142 C10.155,4.832 9.898,5.781 9.531,7.143 L8.508,10.94 C8.14,12.303 7.886,13.253 7.79,13.994 C7.697,14.714 7.77,15.124 7.961,15.453 C8.152,15.783 8.475,16.052 9.15,16.332 C9.844,16.621 10.799,16.876 12.17,17.242 L13.124,17.496 C14.494,17.861 15.45,18.114 16.197,18.21 C16.922,18.303 17.338,18.23 17.671,18.039 C18.004,17.848 18.274,17.527 18.555,16.858 C18.844,16.168 19.102,15.219 19.469,13.856 L20.492,10.06 C20.859,8.697 21.114,7.747 21.21,7.006 C21.303,6.286 21.23,5.876 21.039,5.547 C20.847,5.217 20.525,4.948 19.85,4.668 C19.156,4.379 18.201,4.123 16.83,3.758 L15.876,3.504 C14.505,3.139 13.55,2.886 12.803,2.79 C12.078,2.697 11.662,2.77 11.329,2.961 Z M5.5,6.25 C5.914,6.25 6.25,6.586 6.25,7 C6.25,7.414 5.914,7.75 5.5,7.75 L5.384,7.75 L5.384,7.75 C4.658,7.75 4.119,7.75 3.688,7.836 C3.277,7.917 3.086,8.055 2.964,8.27 C2.77,8.611 2.697,9.037 2.79,9.775 C2.887,10.533 3.141,11.503 3.507,12.892 L4.528,16.764 C4.894,18.153 5.151,19.122 5.441,19.827 C5.723,20.514 5.994,20.842 6.326,21.037 C6.655,21.23 7.066,21.304 7.787,21.209 C8.531,21.112 9.483,20.854 10.851,20.482 L11.803,20.223 C12.203,20.114 12.615,20.35 12.724,20.749 C12.832,21.149 12.597,21.561 12.197,21.67 L11.191,21.944 C9.89,22.298 8.839,22.585 7.982,22.697 C7.091,22.813 6.298,22.759 5.567,22.33 C4.837,21.902 4.397,21.235 4.053,20.397 C3.721,19.589 3.44,18.523 3.091,17.199 L2.043,13.222 C1.694,11.898 1.412,10.832 1.302,9.964 C1.188,9.063 1.241,8.265 1.66,7.529 C2.067,6.811 2.721,6.499 3.396,6.364 C3.979,6.248 4.664,6.249 5.327,6.25 Z M13.074,6.292 L17.847,7.563 C18.247,7.67 18.485,8.081 18.378,8.481 C18.272,8.882 17.861,9.12 17.461,9.013 L12.688,7.741 C12.288,7.635 12.05,7.224 12.156,6.823 C12.263,6.423 12.674,6.185 13.074,6.292 Z M12.051,10.089 L14.437,10.724 C14.837,10.831 15.075,11.242 14.969,11.642 C14.862,12.042 14.451,12.281 14.051,12.174 L11.665,11.538 C11.264,11.431 11.026,11.021 11.133,10.62 C11.24,10.22 11.651,9.982 12.051,10.089 Z" />
</svg>