<svg xmlns="http://www.w3.org/2000/svg" viewBox="0 0 24 24" width="24" height="24" color="currentColor" fill="none">
    <path d="M12.7559 21.8008C7.37586 21.8008 3.00586 17.4308 3.00586 12.0508C3.00586 6.67078 7.37586 2.30078 12.7559 2.30078C15.7859 2.30078 18.6059 3.69078 20.4459 6.05078C20.4759 5.76078 20.5059 5.43077 20.5359 5.04077L20.7159 2.99072C20.7559 2.58072 21.1159 2.28079 21.5259 2.31079C21.9359 2.35079 22.2459 2.71085 22.2059 3.12085L22.0259 5.1709C21.8959 6.7909 21.8259 7.69079 21.1159 8.31079C20.3759 8.93079 19.4459 8.85092 17.9259 8.69092L15.8859 8.48071C15.4759 8.44071 15.1759 8.07089 15.2159 7.66089C15.2559 7.25089 15.6259 6.94072 16.0359 6.99072L18.0759 7.20093C18.6759 7.26093 19.1459 7.31079 19.4959 7.31079C17.9359 5.11079 15.4459 3.81079 12.7459 3.81079C8.19586 3.81079 4.49586 7.51079 4.49586 12.0608C4.49586 16.6108 8.19586 20.3108 12.7459 20.3108C17.2959 20.3108 20.9959 16.6108 20.9959 12.0608C20.9959 11.6508 21.3359 11.3108 21.7459 11.3108C22.1559 11.3108 22.4959 11.6508 22.4959 12.0608C22.4959 17.4408 18.1259 21.8108 12.7459 21.8108L12.7559 21.8008Z" fill="currentColor" />
</svg>