<svg xmlns="http://www.w3.org/2000/svg" viewBox="0 0 24 24" width="24" height="24" color="currentColor" fill="none">
    <path d="M12.3965 18.4438C12.6421 18.7773 13.1108 18.8485 13.4443 18.603H13.4453L13.4463 18.602C13.4472 18.6014 13.4489 18.6001 13.4502 18.5991C13.4533 18.5968 13.4583 18.5934 13.4639 18.5893C13.4757 18.5806 13.4935 18.5678 13.5156 18.5513C13.5608 18.5176 13.6268 18.4676 13.71 18.4048C13.8767 18.2788 14.1149 18.0975 14.3994 17.8755C14.9681 17.4316 15.7294 16.821 16.4922 16.1587C17.2514 15.4995 18.0304 14.774 18.625 14.1011C18.9215 13.7655 19.1882 13.4242 19.3848 13.0981C19.5688 12.7927 19.75 12.4057 19.75 11.9995C19.75 11.5932 19.5689 11.2063 19.3848 10.9009C19.1882 10.5747 18.9216 10.2336 18.625 9.89795C18.0304 9.22497 17.2514 8.49954 16.4922 7.84033C15.7292 7.17784 14.9672 6.5674 14.3984 6.12353C14.114 5.90153 13.8766 5.72014 13.71 5.59424C13.6267 5.53133 13.5608 5.4814 13.5156 5.44775C13.4934 5.43116 13.4758 5.41847 13.4639 5.40967C13.4583 5.40551 13.4533 5.40221 13.4502 5.3999C13.4488 5.39887 13.4472 5.39762 13.4463 5.39697L13.4453 5.39599H13.4443C13.1109 5.15051 12.6422 5.22193 12.3965 5.55517C12.1509 5.88869 12.2222 6.35742 12.5557 6.60303C12.5563 6.60345 12.5575 6.60514 12.5586 6.60596C12.5611 6.60784 12.5652 6.61098 12.5703 6.61474C12.5811 6.62273 12.5979 6.63505 12.6191 6.65088C12.6618 6.68269 12.7252 6.72978 12.8057 6.79053C12.967 6.91241 13.1989 7.0895 13.4766 7.30615C14.0327 7.74018 14.7721 8.33356 15.5088 8.97314C16.249 9.61587 16.9699 10.2913 17.5 10.8911C17.6113 11.0171 17.7103 11.1378 17.7988 11.2505H5C4.58579 11.2505 4.25 11.5863 4.25 12.0005C4.25022 12.4145 4.58593 12.7505 5 12.7505H17.7969C17.7089 12.8622 17.6105 12.9818 17.5 13.1069C16.9699 13.7069 16.2492 14.383 15.5088 15.0259C14.7722 15.6654 14.0327 16.2588 13.4766 16.6929C13.199 16.9094 12.967 17.0866 12.8057 17.2085C12.7253 17.2691 12.6618 17.3163 12.6191 17.3481C12.5982 17.3638 12.5821 17.3763 12.5713 17.3843C12.5661 17.3881 12.5613 17.3911 12.5586 17.3931C12.5576 17.3938 12.5563 17.3946 12.5557 17.395C12.2222 17.6406 12.151 18.1103 12.3965 18.4438Z" fill="currentColor" />
</svg>