<svg xmlns="http://www.w3.org/2000/svg" viewBox="0 0 24 24" width="24" height="24" color="currentColor" fill="none">
    <defs />
    <path fill="currentColor" d="M12.044,3.25 L12.044,3.25 C13.646,3.25 14.909,3.25 15.913,3.356 C16.94,3.464 17.783,3.69 18.511,4.199 C19.013,4.551 19.449,4.987 19.801,5.489 C20.31,6.217 20.536,7.06 20.644,8.087 C20.75,9.091 20.75,10.354 20.75,11.956 L20.75,12.044 C20.75,13.646 20.75,14.909 20.644,15.913 C20.536,16.94 20.31,17.783 19.801,18.511 C19.449,19.013 19.013,19.449 18.511,19.801 C17.783,20.31 16.94,20.536 15.913,20.644 C14.909,20.75 13.646,20.75 12.044,20.75 L11.956,20.75 C10.354,20.75 9.091,20.75 8.087,20.644 C7.06,20.536 6.217,20.31 5.489,19.801 C4.987,19.449 4.551,19.013 4.199,18.511 C3.69,17.783 3.464,16.94 3.356,15.913 C3.25,14.909 3.25,13.646 3.25,12.044 L3.25,11.956 C3.25,10.354 3.25,9.091 3.356,8.087 C3.464,7.06 3.69,6.217 4.199,5.489 C4.551,4.987 4.987,4.551 5.489,4.199 C6.217,3.69 7.06,3.464 8.087,3.356 C9.091,3.25 10.354,3.25 11.956,3.25 L12.044,3.25 Z M8.244,4.848 C7.341,4.943 6.783,5.124 6.349,5.428 C5.991,5.679 5.679,5.991 5.428,6.349 C5.124,6.783 4.943,7.341 4.848,8.244 C4.751,9.161 4.75,10.344 4.75,12 C4.75,13.656 4.751,14.839 4.848,15.756 C4.943,16.659 5.124,17.217 5.428,17.651 C5.679,18.009 5.991,18.321 6.349,18.572 C6.783,18.876 7.341,19.057 8.244,19.152 C9.161,19.249 10.344,19.25 12,19.25 C13.656,19.25 14.839,19.249 15.756,19.152 C16.659,19.057 17.217,18.876 17.651,18.572 C18.009,18.321 18.321,18.009 18.572,17.651 C18.876,17.217 19.057,16.659 19.152,15.756 C19.249,14.839 19.25,13.656 19.25,12 C19.25,10.344 19.249,9.161 19.152,8.244 C19.057,7.341 18.876,6.783 18.572,6.349 C18.321,5.991 18.009,5.679 17.651,5.428 C17.217,5.124 16.659,4.943 15.756,4.848 C14.839,4.751 13.656,4.75 12,4.75 C10.344,4.75 9.161,4.751 8.244,4.848 Z" />
</svg>